<svg xmlns="http://www.w3.org/2000/svg" xmlns:xlink="http://www.w3.org/1999/xlink"
    viewBox="0 0 16 16" id="icon-address">
    <defs>
        <clipPath id="icon-address_master_svg0_36_04275/1_5758">
            <rect x="0" y="0" width="16" height="16" rx="0"></rect>
        </clipPath>
    </defs>
    <g clip-path="url(#icon-address_master_svg0_36_04275/1_5758)">
        <g>
            <path
                d="M14.226353125,3.336793125C12.564853125,1.284791125,9.554383125,0.968291125,7.501883125,2.6302931249999997L5.927383125,3.905293125L6.713883125,4.876793125L8.288383125,3.601793125C9.803993125,2.374476125,12.027553125,2.608183125,13.254853125,4.123793125000001C14.482153125,5.639403125,14.248453125,7.862973125,12.732853125,9.090293124999999L11.045883125,10.456293125L11.832353125,11.427793125L13.519353125,10.061793125C15.571953125,8.400113125,15.888453125,5.388993125,14.226353125,3.336793125ZM8.067883125,12.868253125C6.552353125,14.096753125,4.327783125,13.863553125,3.100043125,12.347353125C1.872303125,10.831243125,2.1066531250000002,8.606793125,3.623383125,7.379793125L5.357383125,5.975793125L4.570883125,5.004293125L2.836883125,6.408293125C0.784883125,8.069793125,0.468383125,11.080793125,2.129883125,13.132753125C3.791383125,15.184753125,6.802383125,15.501253125,8.854383125,13.839753125L10.496883125,12.509753125L9.710383125,11.538293125L8.067883125,12.868253125ZM10.564883125,5.520293125L11.365353125,6.480293125L5.997383125,10.953793125L5.197383125,9.993793125L10.564883125,5.520293125Z"></path>
        </g>
    </g>
</svg>