<svg xmlns="http://www.w3.org/2000/svg" xmlns:xlink="http://www.w3.org/1999/xlink"
    viewBox="0 0 16 16" id="icon-orders">
    <defs>
        <clipPath id="icon-orders_master_svg0_1_5780/1_5758">
            <rect x="0" y="0" width="16" height="16" rx="0"></rect>
        </clipPath>
    </defs>
    <g clip-path="url(#icon-orders_master_svg0_1_5780/1_5758)">
        <g>
            <path
                d="M11.651129375,7.76170953125C11.626929375,7.41901353125,11.358079374999999,7.16064453125,11.025629375000001,7.16064453125L4.895560375,7.16064453125C4.565800375,7.16064453125,4.287109375,7.44219753125,4.287109375,7.77541153125C4.287109375,8.10856153125,4.565800375,8.39005453125,4.895560375,8.39005453125L11.043039375,8.39005453125C11.372909374999999,8.39005453125,11.651609375,8.10856153125,11.651609375,7.77541153125L11.651129375,7.76170953125Z"></path>
        </g>
        <g>
            <path
                d="M6.551853,2.98923109375L9.407885,2.98923109375C9.841555,2.98923109375,10.207965,2.5707410937499997,10.207965,2.07540109375C10.207965,1.5715350937500001,9.841205,1.16162109375,9.390425,1.16162109375L6.551853,1.16162109375C6.10107,1.16162109375,5.734375,1.57151909375,5.734375,2.07540109375C5.734375,2.5792810937499997,6.101087,2.98923109375,6.551853,2.98923109375Z"></path>
        </g>
        <g>
            <path
                d="M11.043029375,4.87353515625L4.895560375,4.87353515625C4.565800375,4.87353515625,4.287109375,5.15502415625,4.287109375,5.48830215625C4.287109375,5.82151615625,4.565800375,6.10300515625,4.895560375,6.10300515625L11.043039375,6.10300515625C11.372909374999999,6.10300515625,11.651609375,5.82151615625,11.651609375,5.48830215625C11.651589375,5.15502415625,11.372899375,4.87353515625,11.043029375,4.87353515625Z"></path>
        </g>
        <g>
            <path
                d="M11.025629375000001,9.64111328125L4.895560375,9.64111328125C4.565800375,9.64111328125,4.287109375,9.92266628125,4.287109375,10.25588028125C4.287109375,10.58903028125,4.565800375,10.87052328125,4.895560375,10.87052328125L11.043039375,10.87052328125C11.372909374999999,10.87052328125,11.651609375,10.58903028125,11.651609375,10.25588028125L11.651129375,10.24217828125C11.626929375,9.89949828125,11.358059375,9.64111328125,11.025629375000001,9.64111328125Z"></path>
        </g>
        <g>
            <path
                d="M13.827546875,2.106676109375C13.500746875,1.753075109375,13.031746875,1.566162109375,12.471346875,1.566162109375L11.652846875,1.566162109375C11.326706875,1.566162109375,10.974716875,1.7810401093750001,10.974716875,2.128069109375C10.974716875,2.456103109375,11.310616875,2.778042109375,11.652846875,2.778042109375L12.471346875,2.778042109375C12.852846875,2.778042109375,13.099346875,3.026992109375,13.099346875,3.412352109375L13.099346875,12.929662109375C13.099346875,13.315062109375,12.852746875,13.563962109375,12.471346875,13.563962109375L3.659506875,13.563962109375C3.264496875,13.563962109375,2.822666875,13.292762109375,2.822666875,12.929662109375L2.822666875,3.412362109375C2.822666875,3.0270121093749998,3.0691268750000003,2.778062109375,3.450586875,2.778062109375L4.478056875,2.778062109375C4.7795168750000006,2.778062109375,4.982046875,2.516829109375,4.982046875,2.128085109375C4.982046875,1.776228109375,4.793636875,1.566178083375,4.478056875,1.566178083375L3.450586875,1.566178083375C2.306215875,1.566178083375,1.623046875,2.262938109375,1.623046875,3.429952109375L1.623046875,12.841662109375C1.623046875,14.016662109375,2.374569875,14.775862109375,3.5376568749999997,14.775862109375L12.384246875,14.775862109375C13.618946875,14.775862109375,14.298946875,14.088962109375,14.298946875,12.841662109375L14.298946875,3.429942109375C14.298946875,2.897882109375,14.135946875,2.440305109375,13.827546875,2.106676109375Z"></path>
        </g>
    </g>
</svg>