<svg xmlns="http://www.w3.org/2000/svg" xmlns:xlink="http://www.w3.org/1999/xlink"
    viewBox="0 0 16 16" id="icon-user2">
    <defs>
        <clipPath id="icon-user2_master_svg0_1_5792/1_5762">
            <rect x="0" y="0" width="16" height="16" rx="0"></rect>
        </clipPath>
    </defs>
    <g clip-path="url(#icon-user2_master_svg0_1_5792/1_5762)">
        <g>
            <path
                d="M8.00942,7.0266C6.34743,7.0266,4.99529,5.67483,4.99529,4.0133C4.99529,2.35177,6.34743,1,8.00942,1C9.67143,1,11.02355,2.35177,11.02355,4.0133C11.02355,5.67483,9.67143,7.0266,8.00942,7.0266ZM8.00942,2.20532C7.01221,2.20532,6.20094,3.01637,6.20094,4.0133C6.20094,5.01023,7.01221,5.82128,8.00942,5.82128C9.00662,5.82128,9.8179,5.01023,9.8179,4.0133C9.8179,3.01637,9.00662,2.20532,8.00942,2.20532ZM6.93377,15C5.1141000000000005,15,3.4499500000000003,14.9284,2.577168,14.0592C2.194185,13.6778,2,13.1839,2,12.5914C2,11.9957,2.193036,11.4084,2.5737579999999998,10.84581C2.912433,10.34536,3.3820699999999997,9.8902,3.96964,9.49297C5.13198,8.70721,6.60442,8.256540000000001,8.00942,8.256540000000001C9.41381,8.256540000000001,10.8832,8.707460000000001,12.0409,9.4937C12.6258,9.89097,13.0932,10.34634,13.4301,10.84718C13.8083,11.4093,14,11.9962,14,12.5914C14,13.1856,13.8056,13.6804,13.4223,14.0622C12.467,15.0137,10.56227,15.0063,8.545480000000001,14.9986C8.188089999999999,14.9973,7.8307,14.9972,7.47332,14.9986C7.29238,14.9993,7.11232,15,6.93377,15ZM8.00942,13.7919C8.18965,13.7919,8.370149999999999,13.7926,8.5501,13.7933C9.48297,13.7969,10.36392,13.8003,11.10849,13.7105C11.83222,13.6232,12.3244,13.4543,12.5715,13.2083C12.6671,13.113,12.7943,12.9453,12.7943,12.5914C12.7943,11.874,12.2728,11.1084,11.36333,10.49073C10.40062,9.83686,9.178149999999999,9.46186,8.00942,9.46186C5.62997,9.46186,3.2056500000000003,11.0412,3.2056500000000003,12.5914C3.2056500000000003,12.9431,3.33258,13.1102,3.42808,13.2053C4.031750000000001,13.8065,5.857749999999999,13.7994,7.46872,13.7933C7.64874,13.7926,7.82927,13.7919,8.00942,13.7919Z"></path>
        </g>
    </g>
</svg>